PathFileType	4	(x/y/z)	A01_T0012.trc
DataRate	CameraRate	NumFrames	NumMarkers	Units	OrigDataRate	OrigDataStartFrame	OrigNumFrames
240	240	5	47	mm	240	1051	1200
Frame#	Time	R_AC			L_AC			R_ASIS			L_ASIS			R_PSIS			L_PSIS			R_GT			L_GT			R_IC			L_IC			SACRAL			R_THIGH_PROX_POST			L_THIGH_PROX_POST			R_THIGH_PROX_ANT			L_THIGH_PROX_ANT			R_THIGH_DIST_POST			L_THIGH_DIST_POST			R_THIGH_DIST_ANT			L_THIGH_DIST_ANT			R_LAT_KNEE			R_MED_KNEE			L_LAT_KNEE			L_MED_KNEE			L_PROS_PROX_ANT			L_PROS_PROX_POST			L_PROS_DIST_ANT			L_PROS_DIST_POST			R_LL_PROX_ANT			R_LL_PROX_POST			R_LL_DIST_POST			R_LL_DIST_ANT			R_LAT_ANK			R_MED_ANK			L_MED_ANK			L_LAT_ANK			L_TOE			R_TOE			L_5TH_MET			L_1ST_MET			R_1ST_MET			R_5TH_MET			R_HEEL_SUP			L_HEEL_SUP			R_HEEL_LAT			L_HEEL_LAT			L_HEEL_MED			R_HEEL_MED			
		X1	Y1	Z1	X2	Y2	Z2	X3	Y3	Z3	X4	Y4	Z4	X5	Y5	Z5	X6	Y6	Z6	X7	Y7	Z7	X8	Y8	Z8	X9	Y9	Z9	X10	Y10	Z10	X11	Y11	Z11	X12	Y12	Z12	X13	Y13	Z13	X14	Y14	Z14	X15	Y15	Z15	X16	Y16	Z16	X17	Y17	Z17	X18	Y18	Z18	X19	Y19	Z19	X20	Y20	Z20	X21	Y21	Z21	X22	Y22	Z22	X23	Y23	Z23	X24	Y24	Z24	X25	Y25	Z25	X26	Y26	Z26	X27	Y27	Z27	X28	Y28	Z28	X29	Y29	Z29	X30	Y30	Z30	X31	Y31	Z31	X32	Y32	Z32	X33	Y33	Z33	X34	Y34	Z34	X35	Y35	Z35	X36	Y36	Z36	X37	Y37	Z37	X38	Y38	Z38	X39	Y39	Z39	X40	Y40	Z40	X41	Y41	Z41	X42	Y42	Z42	X43	Y43	Z43	X44	Y44	Z44	X45	Y45	Z45	X46	Y46	Z46	X47	Y47	Z47	

1051	4.3786	598.31	1579.2	531.6	646.61	1591.5	110.5	696.75	1084.1	525.07	764.74	1067.7	171.83	508.11	1078.3	359.75	538.72	1090.4	234.3	630.98	970.48	548.15	715.61	976.65	116.4	638.87	1187.3	529.08	724.92	1176.2	129.05	508.99	1055.1	289.97	596.37	842.55	526.92	713.83	836.84	125.48	663.2	865.44	543.22	778.72	832.75	156.24	607.78	753.81	523.97	725.16	761.49	135.55	672.02	774.14	541.45	785.16	758.99	162.29	636.94	562.5	503.71	686.67	552.12	379.08	720.98	581.41	153.7	733.68	554.43	309.48	747.05	490.3	158.26	693.86	503.25	146.55	726.63	437.54	158.54	673.85	443.19	148.06	576.96	386.34	528.94	514.16	404.17	495.74	518.94	321.11	495.26	569.91	311.25	517.01	521.84	110.62	490.57	559.6	115.47	390.66	598.17	146.72	200.51	570.54	150.95	133.4	793.3	75.726	150.79	766.12	72.595	470.05	679.47	53.823	78.379	710.35	57.376	206.16	690.2	57.674	410.91	641.39	45.813	539.02	440.21	69.185	421.01	474.09	108.29	164.65	442.98	45.061	456.09	479.84	79.326	133.41	489.03	76.519	196.15	454.8	43.409	395.1
1052	4.3828	598.39	1579.2	531.62	646.67	1591.5	110.5	696.8	1084.1	525.1	764.79	1067.7	171.86	508.16	1078.3	359.78	538.77	1090.4	234.33	631.03	970.47	548.18	715.66	976.64	116.43	638.92	1187.3	529.1	724.96	1176.2	129.06	509.04	1055.1	290	596.42	842.55	526.95	713.88	836.83	125.51	663.25	865.43	543.25	778.77	832.74	156.27	607.83	753.8	523.99	725.21	761.48	135.57	672.07	774.13	541.47	785.21	758.99	162.31	636.99	562.48	503.72	686.69	552.12	379.09	721.02	581.4	153.71	733.69	554.41	309.5	747.09	490.29	158.27	693.89	503.24	146.57	726.66	437.53	158.55	673.88	443.19	148.07	576.99	386.33	528.96	514.2	404.18	495.75	518.96	321.11	495.27	569.93	311.25	517.02	521.85	110.62	490.57	559.6	115.47	390.66	598.17	146.72	200.51	570.55	150.96	133.4	793.3	75.725	150.79	766.12	72.594	470.05	679.47	53.825	78.379	710.35	57.376	206.16	690.2	57.675	410.91	641.4	45.811	539.02	440.21	69.19	421	474.1	108.3	164.65	442.98	45.062	456.09	479.84	79.332	133.41	489.03	76.537	196.15	454.8	43.414	395.1
1053	4.387	598.46	1579.2	531.63	646.74	1591.5	110.5	696.85	1084.1	525.13	764.85	1067.7	171.89	508.21	1078.3	359.81	538.82	1090.4	234.36	631.08	970.46	548.21	715.71	976.64	116.46	638.97	1187.3	529.13	725.01	1176.2	129.08	509.09	1055.1	290.03	596.47	842.55	526.97	713.93	836.82	125.53	663.3	865.42	543.27	778.82	832.73	156.29	607.88	753.79	524.01	725.26	761.47	135.59	672.11	774.12	541.49	785.25	758.98	162.33	637.03	562.46	503.73	686.72	552.11	379.1	721.07	581.4	153.73	733.71	554.39	309.52	747.12	490.28	158.29	693.93	503.24	146.58	726.69	437.53	158.56	673.92	443.19	148.08	577.03	386.33	528.97	514.24	404.18	495.77	518.99	321.11	495.29	569.95	311.25	517.03	521.85	110.62	490.57	559.6	115.47	390.66	598.18	146.73	200.51	570.56	150.97	133.4	793.3	75.723	150.79	766.12	72.592	470.05	679.47	53.829	78.379	710.35	57.377	206.16	690.2	57.675	410.91	641.4	45.809	539.02	440.2	69.198	421	474.1	108.31	164.65	442.98	45.064	456.09	479.84	79.339	133.41	489.02	76.558	196.15	454.79	43.424	395.09
1054	4.3912	598.53	1579.2	531.65	646.81	1591.5	110.5	696.9	1084.1	525.16	764.9	1067.7	171.91	508.27	1078.3	359.84	538.88	1090.4	234.39	631.14	970.45	548.24	715.76	976.63	116.48	639.02	1187.3	529.16	725.06	1176.1	129.09	509.15	1055.1	290.06	596.51	842.55	527	713.98	836.81	125.56	663.35	865.41	543.3	778.87	832.72	156.31	607.93	753.78	524.03	725.3	761.46	135.61	672.16	774.12	541.51	785.3	758.97	162.35	637.07	562.45	503.74	686.74	552.11	379.11	721.11	581.4	153.74	733.73	554.37	309.53	747.16	490.28	158.3	693.97	503.23	146.6	726.72	437.53	158.57	673.95	443.19	148.09	577.06	386.33	528.99	514.28	404.2	495.79	519.01	321.11	495.31	569.98	311.25	517.05	521.85	110.63	490.58	559.6	115.47	390.66	598.19	146.73	200.52	570.57	150.97	133.4	793.31	75.721	150.79	766.13	72.59	470.05	679.47	53.832	78.379	710.35	57.378	206.16	690.2	57.675	410.91	641.4	45.807	539.02	440.19	69.21	420.99	474.11	108.32	164.66	442.99	45.067	456.1	479.84	79.347	133.42	489.01	76.582	196.15	454.77	43.439	395.08
1055	4.3953	598.6	1579.2	531.67	646.89	1591.5	110.51	696.95	1084.1	525.19	764.96	1067.7	171.94	508.33	1078.2	359.87	538.93	1090.4	234.42	631.19	970.44	548.27	715.81	976.62	116.51	639.07	1187.3	529.18	725.11	1176.1	129.11	509.2	1055.1	290.09	596.56	842.55	527.02	714.02	836.8	125.58	663.4	865.4	543.32	778.92	832.72	156.34	607.97	753.78	524.05	725.35	761.45	135.64	672.2	774.11	541.53	785.34	758.96	162.36	637.11	562.44	503.75	686.76	552.11	379.12	721.15	581.39	153.76	733.75	554.36	309.55	747.19	490.27	158.31	694.01	503.23	146.61	726.75	437.52	158.59	673.99	443.19	148.11	577.09	386.33	529	514.33	404.21	495.81	519.04	321.12	495.33	570	311.25	517.06	521.86	110.63	490.58	559.6	115.48	390.66	598.2	146.73	200.52	570.58	150.98	133.41	793.31	75.718	150.8	766.13	72.587	470.05	679.47	53.836	78.379	710.35	57.378	206.17	690.2	57.674	410.91	641.4	45.805	539.02	440.17	69.225	420.98	474.11	108.33	164.66	442.99	45.069	456.1	479.85	79.356	133.42	489	76.609	196.15	454.75	43.459	395.07
